<!-- SVG sprite: modern, minimal icons for site sections -->
<svg xmlns="http://www.w3.org/2000/svg" style="display:none">
  <symbol id="icon-home" viewBox="0 0 24 24">
    <path d="M3 11.5 12 4l9 7.5V20a1 1 0 0 1-1 1h-5v-6H9v6H4a1 1 0 0 1-1-1v-8.5z"/>
  </symbol>

  <symbol id="icon-services" viewBox="0 0 24 24">
    <rect x="3" y="3" width="8" height="8" rx="1"/>
    <rect x="13" y="3" width="8" height="8" rx="1"/>
    <rect x="3" y="13" width="8" height="8" rx="1"/>
    <rect x="13" y="13" width="8" height="8" rx="1"/>
  </symbol>

  <symbol id="icon-industries" viewBox="0 0 24 24">
    <path d="M3 21h18v-8l-4 1-4-3-6 4-4-2v8zM7 9V5l4-2v6H7z"/>
  </symbol>

  <symbol id="icon-finder" viewBox="0 0 24 24">
    <path d="M21 21l-4.35-4.35" stroke-width="0"/>
    <path d="M11 18a7 7 0 1 1 0-14 7 7 0 0 1 0 14z"/>
  </symbol>

  <symbol id="icon-compliance" viewBox="0 0 24 24">
    <path d="M12 2l7 4v6c0 5-3.58 9.74-7 10-3.42-.26-7-5-7-10V6l7-4z"/>
    <path d="M10 12l2 2 4-4" stroke-width="0" fill="none" stroke-linecap="round" stroke-linejoin="round"/>
  </symbol>

  <symbol id="icon-areas" viewBox="0 0 24 24">
    <path d="M12 2C8 6 5 9 5 13a7 7 0 0 0 14 0c0-4-3-7-7-11z"/>
    <circle cx="12" cy="13" r="2"/>
  </symbol>

  <symbol id="icon-faq" viewBox="0 0 24 24">
    <path d="M12 2a10 10 0 1 0 0 20 10 10 0 0 0 0-20zM11 10h2v2a2 2 0 1 1-4 0"/>
    <circle cx="12" cy="17" r="1"/>
  </symbol>

  <symbol id="icon-quote" viewBox="0 0 24 24">
    <path d="M7 7h4v6H6V9a2 2 0 0 1 1-2zM15 7h4v6h-5V9a2 2 0 0 1 1-2z"/>
  </symbol>

  <symbol id="icon-phone" viewBox="0 0 24 24">
    <path d="M21 16.5a16 16 0 0 1-7.5-7.5l2.2-2.2a1 1 0 0 0 .2-1.1L15 2.6A1 1 0 0 0 13.9 2l-3-1C9 1 4 3.2 2 7.8c-1.3 2.6-.3 6 2.3 9.9 2.6 3.9 6.3 6.1 9 5.2C18.8 22 20 19 21 16.5z"/>
  </symbol>

  <symbol id="icon-chat" viewBox="0 0 24 24">
    <path d="M21 15a2 2 0 0 1-2 2H8l-5 4V5a2 2 0 0 1 2-2h14a2 2 0 0 1 2 2z"/>
  </symbol>

  <symbol id="icon-mail" viewBox="0 0 24 24">
    <path d="M3 5h18v14H3z"/>
    <path d="M3 7l9 6 9-6" fill="none"/>
  </symbol>

  <symbol id="icon-map" viewBox="0 0 24 24">
    <path d="M20.5 3l-5 2-5-2-6 3v13l6-3 5 2 5-2 6-3V3l-6 3z"/>
  </symbol>

  <symbol id="icon-check" viewBox="0 0 24 24">
    <path d="M20 6L9 17l-5-5"/>
  </symbol>

  <symbol id="icon-user" viewBox="0 0 24 24">
    <path d="M12 12a4 4 0 1 0 0-8 4 4 0 0 0 0 8z"/>
    <path d="M4 20a8 8 0 0 1 16 0"/>
  </symbol>

  <symbol id="icon-calendar" viewBox="0 0 24 24">
    <rect x="3" y="5" width="18" height="16" rx="2"/>
    <path d="M16 3v4M8 3v4"/>
  </symbol>

  <symbol id="icon-briefcase" viewBox="0 0 24 24">
    <rect x="3" y="7" width="18" height="12" rx="2"/>
    <path d="M8 7V5h8v2"/>
  </symbol>

  <symbol id="icon-document" viewBox="0 0 24 24">
    <path d="M6 2h7l5 5v13a2 2 0 0 1-2 2H6z"/>
    <path d="M13 2v6h6" fill="none"/>
  </symbol>
</svg>
