<svg xmlns="http://www.w3.org/2000/svg" viewBox="0 0 800 500" role="img" aria-label="Food and beverage facility">
  <defs>
    <linearGradient id="g" x1="0" y1="0" x2="1" y2="1">
      <stop offset="0" stop-color="#141b24"/><stop offset="1" stop-color="#0b0f15"/>
    </linearGradient>
    <radialGradient id="b" cx="78%" cy="16%" r="62%">
      <stop offset="0" stop-color="#F4541E" stop-opacity=".55"/>
      <stop offset="62%" stop-color="#F4541E" stop-opacity="0"/>
    </radialGradient>
    <radialGradient id="b2" cx="10%" cy="92%" r="55%">
      <stop offset="0" stop-color="#F4541E" stop-opacity=".22"/>
      <stop offset="60%" stop-color="#F4541E" stop-opacity="0"/>
    </radialGradient>
    <pattern id="d" width="26" height="26" patternUnits="userSpaceOnUse">
      <circle cx="2" cy="2" r="1.3" fill="#fff" opacity=".05"/>
    </pattern>
  </defs>
  <rect width="800" height="500" fill="url(#g)"/>
  <rect width="800" height="500" fill="url(#d)"/>
  <rect width="800" height="500" fill="url(#b)"/>
  <rect width="800" height="500" fill="url(#b2)"/>
  <circle cx="400" cy="250" r="120" fill="#F4541E" opacity=".10"/>
  <g transform="translate(400 250) scale(9) translate(-12 -12)" fill="none" stroke="#eaf2f5" stroke-width="1.5" stroke-linecap="round" stroke-linejoin="round">
    <path d="M4 2v6a2 2 0 0 0 2 2 2 2 0 0 0 2-2V2"/><path d="M6 11v11"/><path d="M19 15V2a5 5 0 0 0-5 5v6c0 1.1.9 2 2 2h3Zm0 0v7"/>
  </g>
</svg>
