<svg xmlns="http://www.w3.org/2000/svg" viewBox="0 0 800 500" role="img" aria-label="Healthcare facility">
  <defs>
    <linearGradient id="g" x1="0" y1="0" x2="1" y2="1">
      <stop offset="0" stop-color="#141b24"/><stop offset="1" stop-color="#0b0f15"/>
    </linearGradient>
    <radialGradient id="b" cx="78%" cy="16%" r="62%">
      <stop offset="0" stop-color="#2bd4c4" stop-opacity=".5"/>
      <stop offset="62%" stop-color="#2bd4c4" stop-opacity="0"/>
    </radialGradient>
    <radialGradient id="b2" cx="10%" cy="92%" r="55%">
      <stop offset="0" stop-color="#2bd4c4" stop-opacity=".2"/>
      <stop offset="60%" stop-color="#2bd4c4" stop-opacity="0"/>
    </radialGradient>
    <pattern id="d" width="26" height="26" patternUnits="userSpaceOnUse">
      <circle cx="2" cy="2" r="1.3" fill="#fff" opacity=".05"/>
    </pattern>
  </defs>
  <rect width="800" height="500" fill="url(#g)"/>
  <rect width="800" height="500" fill="url(#d)"/>
  <rect width="800" height="500" fill="url(#b)"/>
  <rect width="800" height="500" fill="url(#b2)"/>
  <circle cx="400" cy="250" r="120" fill="#2bd4c4" opacity=".10"/>
  <g transform="translate(400 250) scale(9) translate(-12 -12)" fill="none" stroke="#eaf2f5" stroke-width="1.5" stroke-linecap="round" stroke-linejoin="round">
    <path d="M19 14c1.5-1.5 3-3.2 3-5.5A5.5 5.5 0 0 0 16.5 3c-1.8 0-3 .5-4.5 2-1.5-1.5-2.7-2-4.5-2A5.5 5.5 0 0 0 2 8.5c0 2.3 1.5 4 3 5.5l7 7Z"/><path d="M3.2 12H9.5l.5-1 2 4.5 2-7 1.5 3.5h5.3"/>
  </g>
</svg>
