<svg xmlns="http://www.w3.org/2000/svg" viewBox="0 0 800 500" role="img" aria-label="Retail and public spaces">
  <defs>
    <linearGradient id="g" x1="0" y1="0" x2="1" y2="1">
      <stop offset="0" stop-color="#141b24"/><stop offset="1" stop-color="#0b0f15"/>
    </linearGradient>
    <radialGradient id="b" cx="78%" cy="16%" r="62%">
      <stop offset="0" stop-color="#36c172" stop-opacity=".45"/>
      <stop offset="62%" stop-color="#36c172" stop-opacity="0"/>
    </radialGradient>
    <radialGradient id="b2" cx="10%" cy="92%" r="55%">
      <stop offset="0" stop-color="#36c172" stop-opacity=".18"/>
      <stop offset="60%" stop-color="#36c172" stop-opacity="0"/>
    </radialGradient>
    <pattern id="d" width="26" height="26" patternUnits="userSpaceOnUse">
      <circle cx="2" cy="2" r="1.3" fill="#fff" opacity=".05"/>
    </pattern>
  </defs>
  <rect width="800" height="500" fill="url(#g)"/>
  <rect width="800" height="500" fill="url(#d)"/>
  <rect width="800" height="500" fill="url(#b)"/>
  <rect width="800" height="500" fill="url(#b2)"/>
  <circle cx="400" cy="250" r="120" fill="#36c172" opacity=".10"/>
  <g transform="translate(400 250) scale(9) translate(-12 -12)" fill="none" stroke="#eaf2f5" stroke-width="1.5" stroke-linecap="round" stroke-linejoin="round">
    <circle cx="8" cy="21" r="1"/><circle cx="19" cy="21" r="1"/><path d="M2 2h2l2.6 12.4a2 2 0 0 0 2 1.6h9.7a2 2 0 0 0 2-1.6L22 7H5"/>
  </g>
</svg>
